<svg width="16" height="16" viewBox="0 0 16 16" fill="none" xmlns="http://www.w3.org/2000/svg">
<path d="M6.87453 10.8018L6.96623 10.7062L6.97624 10.6299L7.01681 10.563L7.05738 10.4387L7.11852 10.3624L7.15909 10.2192L7.22023 10.133L7.42365 9.96107V9.94174L7.43365 9.87485L7.67764 9.6648L7.74878 9.57858L7.98277 9.54984L8.09448 9.56865L8.28734 9.60679L8.39905 9.54931H8.47019L8.60247 9.41555L8.72419 9.40614L8.76476 9.35807L8.92761 9.34866L8.94817 9.26244L8.88703 9.16682L8.8259 9.06179L8.80533 8.97557L8.87648 8.89928L9.04933 8.76551L9.21217 8.77492L9.29609 8.68818H9.29387L9.33444 8.63122L9.42615 8.5356L9.55843 8.48752L9.609 8.44938L9.69015 8.42064L9.77129 8.36316L9.81186 8.28687L9.85244 8.21999L9.98471 8.19125L10.0659 8.16251L10.1876 8.14317L10.2687 8.13377L10.4821 7.93312L10.5027 7.87564L10.7061 7.8563L10.7773 7.81816H10.889L11.0007 7.78942L11.0213 7.7032L11.0824 7.65565L11.0724 7.56107L11.0113 7.55741V7.4644L10.9045 7.42155L10.8362 7.30712L10.7217 7.20679L10.5616 7.09915L10.3865 6.94135L10.3638 6.84833L10.2954 6.79086L10.2804 6.69784L10.1431 6.64037L10.067 6.61163L9.99861 6.54004V6.45382L9.92969 6.42508L9.86855 6.29602L9.84577 6.15963L9.80742 6.10947L9.79241 6.03057L9.69348 5.98772H9.64013L9.58677 6.03057H9.49507L9.44171 5.99451L9.30443 5.84402L9.29665 5.24206L9.24329 5.1919L9.23551 5.14905L9.18216 5.10621L9.05266 5.01319L9.02209 4.97035L8.89259 4.96303L8.83146 4.99177L8.79311 5.06336L8.7014 5.07067L8.6864 5.02051L8.61803 5.0064L8.59525 4.94892L8.6336 4.8627L8.6486 4.77649L8.58747 4.71221L8.57246 4.66205L8.61081 4.59778L8.55745 4.53351V4.4405L8.64138 4.33285L8.58802 4.26127L8.56523 4.1322L8.64138 4.08204L8.64916 3.95297L8.62637 3.8887L8.61136 3.83122C8.64193 3.76695 8.77921 3.63057 8.77921 3.63057H8.95429L9.11435 3.54435L9.13714 3.39386L9.17549 3.3437L9.11435 3.26479C9.10657 3.22195 9.19828 3.18589 9.19828 3.18589L9.32777 3.15715L9.36612 3.1211L9.3739 3.02809L9.31277 2.98524L9.0232 2.57662L9.00042 2.54056L8.90149 2.35402L9.11491 2.12462L9.32055 2.1032L9.67903 1.76617L9.7096 1.72332V1.57283C9.80186 1.64442 10.3121 0.820379 10.3121 0.820379C10.4471 0.366819 10.8645 0.103984 11.0668 0H7.33028V6.25944L3.73878 0H0V12.1589H3.44143V6.01228L6.71502 10.9685L6.74225 10.9549L6.87453 10.8018V10.8018Z" fill="#719F2A"/>
<path d="M11.8652 13.1145L11.9769 13.2577L11.9158 13.1715L11.8652 13.1145Z" fill="#1980C8"/>
<path d="M11.2685 0L12.8647 0.936904L15.3346 2.18419L15.3268 2.46375C15.3268 2.46375 15.2657 3.00875 14.8922 3.47433L14.8694 3.54592L14.8544 3.66035L14.7933 3.76799L14.801 3.90438L14.8466 3.97596L14.8544 4.01881L14.8088 4.06166L14.5798 4.19804L14.5037 4.29837L14.4503 4.39138L14.3286 4.44886L14.2219 4.42743L14.2369 4.31979L14.3664 4.1693L14.397 4.10503L14.3664 4.06897L14.2519 4.0904L14.1069 4.26231L14.0385 4.40549L13.8023 4.61346L13.8173 4.72789L13.7717 4.78537L13.7795 4.87838L13.7567 4.9646L13.65 5.01476L13.6044 5.09366L13.5816 5.28021L13.5283 5.35911L13.4899 5.44533L13.3982 5.40248L13.2687 5.35232L13.2154 5.40248L13.1237 5.50281L12.9714 5.56029L13.1465 5.54618L13.2148 5.46728L13.2987 5.43854L13.3977 5.46728L13.4205 5.53155L13.466 5.61777L13.5577 5.68935L13.5805 5.74683L13.6417 5.71809L13.7178 5.75415L13.7862 5.80431H13.8545L13.8695 5.76146L13.9079 5.71862L13.9918 5.74735L14.0607 5.74004L14.0991 5.7113L14.1524 5.68988L14.2364 5.73272L14.2897 5.79752L14.3736 5.81163L14.4498 5.83305L14.5259 5.86911L14.6326 5.94069L14.7393 5.96212L14.8233 5.97622L14.8994 6.0337L14.9222 5.96943V5.89784L14.8838 5.83357L14.8077 5.77609L14.8155 5.71862L14.8461 5.66845L14.8155 5.55349L14.8766 5.57492L14.9378 5.66793L14.9911 5.72541L15.0139 5.82573L15.0445 5.92606L15.0523 6.05513L15.0067 6.11261H14.8466L14.7171 6.14135L14.641 6.23436L14.5876 6.25578L14.5265 6.29863L14.5648 6.32737L14.6793 6.29131L14.7477 6.21241L14.885 6.16956L14.9917 6.1983L14.885 6.30594L14.8544 6.39895L14.7933 6.4418L14.7782 6.53481L14.8316 6.49876L14.9155 6.4627L14.9233 6.34095L15.0528 6.28347L15.03 6.41986L15.045 6.49144L14.9917 6.57766L14.9995 6.65656L15.0072 6.87864L14.9617 6.95754L14.9083 7.05055L14.8777 7.10803L14.8627 7.33743L14.8172 7.38759L14.5959 7.4017L14.6649 7.46597L14.8021 7.45186L14.8099 7.53808L14.7644 7.63109L14.7416 7.91796L14.6532 7.94879L14.6632 8.06845L14.6126 8.14474L14.5721 8.23096L14.4803 8.29784L14.3992 8.26911L14.3181 8.28844L14.2775 8.35532V8.46976L14.2163 8.55598L14.2063 8.62286L14.2775 8.68975L14.3692 8.74722L14.3898 8.83344L14.3392 8.90033L14.3292 8.97662L14.2175 8.98602L14.1158 8.94788L14.024 8.8904L14.034 8.97662L14.1052 9.05291L14.2269 9.06231L14.3081 9.08165L14.3181 9.14853L14.2469 9.23475L14.1963 9.32097L14.1558 9.41659L14.2369 9.47407L14.1658 9.60784L14.0741 9.7322L14.0435 9.82782L13.9824 9.94226V10.0379L13.9312 10.1048L13.9718 10.2291L14.0735 10.2767V10.3342L14.0635 10.4585L13.9718 10.5447L13.9107 10.631L13.8601 10.7741L13.7789 10.8698L13.6467 10.8891L13.6061 10.9753L13.5144 11.1091L13.4027 11.1185L13.3315 11.2235L13.2398 11.2998L13.1993 11.386L13.291 11.4722L13.271 11.5297L13.1592 11.5679L13.027 11.5391L12.8947 11.5773L12.8235 11.6823L12.783 11.7685L12.8541 11.9211L12.8441 12.0455L12.763 12.1218L12.6713 12.1029L12.6101 12.0836L12.549 12.1599L12.4984 12.2649L12.4273 12.3511V12.4849L12.3356 12.6187H12.2339L12.1933 12.7143L12.051 12.8387L11.9899 12.9818L11.8476 13.0487H11.7664L11.6953 13.0963L11.6342 13.1156L11.6547 13.2206L11.6447 13.3257L11.5636 13.4401L11.4213 13.6214L11.3096 13.7359L11.1573 13.8602L11.1673 13.9464L11.1367 14.0995L11.045 14.2239L10.9128 14.2908L10.8516 14.3671L10.7599 14.4152L10.7699 14.482L10.8411 14.5489L10.8105 14.6639L10.7493 14.7783L10.5865 14.8739L10.4442 14.9408L10.3325 15.0077L10.2714 15.1509L10.2614 15.2559L10.2002 15.3421H10.1085L10.0274 15.2752L9.92567 15.2465L9.84453 15.2366L9.82396 15.1028L9.85453 14.921L9.92567 14.7872L10.078 14.5865L10.1491 14.376L10.2202 14.2709L10.1897 14.1278L10.1085 13.9747L10.0374 13.8911V13.9078L9.93568 13.879L9.8034 13.8409H9.50883L9.46826 13.7933L9.4477 13.7071L9.37655 13.669L9.28485 13.7071L9.15257 13.7259L9.03086 13.7547L9.00029 13.8409L8.91914 13.889L8.86857 13.8602L8.76686 13.8221L8.69572 13.8027L8.71628 13.7547L8.74685 13.6784L8.75685 13.5639L8.68571 13.4877L8.574 13.4208L8.45173 13.3727L8.39059 13.3058L8.31945 13.1626L8.24831 13.1245L8.1566 13.1438L8.08546 13.2107L8.02432 13.1632L7.96319 13.0769L7.91261 13.0195V12.9238L7.87204 12.8664L7.84147 12.8089L7.77033 12.8376L7.71975 12.9045L7.67918 12.857L7.61804 12.8089L7.55691 12.7326L7.51634 12.6751L7.4552 12.5889L7.30291 12.5602L7.27235 12.4739L7.23177 12.3689L7.01835 12.1777L6.95721 12.1108L6.82494 12.1014L6.7538 12.0439L6.71322 11.9676L6.77436 11.9007L6.78436 11.7669L6.83494 11.547L6.89608 11.4419L6.90608 11.3557L6.83494 11.2888L6.73657 11.223H4.93359V11.6222C4.93359 11.6421 4.93471 11.6614 4.93526 11.6813C4.96916 14.041 7.01335 15.9645 9.52217 15.9984C9.54496 15.9984 9.56719 16 9.58998 16H11.344C11.4035 16 11.4624 15.9979 11.5219 15.9958C14.0013 15.907 16.0004 13.9741 16.0004 11.6222V0H11.269H11.2685ZM14.7221 8.33599L14.661 8.61293L14.6204 8.81359L14.6104 8.90921C14.4987 10.2568 14.153 10.6769 14.153 10.6769L14.0613 10.8969C13.8784 11.327 13.5533 11.6421 13.5533 11.6421L13.4721 11.7377L13.2893 11.7664L13.2754 11.7555L13.2687 11.8234L13.3193 11.9284L13.3399 12.024L13.2482 12.1003L13.2076 12.2247L13.1365 12.3679L12.9436 12.5304L12.8113 12.5973L12.7707 12.6929L12.659 12.7791L12.4962 12.8648L12.3033 13.008L12.1816 13.0749L12.0593 13.1036L12.0188 13.2086L11.9782 13.2562L11.9376 13.3231C11.9376 13.3231 11.8259 13.4088 11.6531 13.6193L11.6325 13.6674L11.5513 13.7056L11.5108 13.8012C11.5108 13.8012 11.3991 14.1069 11.2768 14.2025L11.2262 14.3075C11.2262 14.3075 11.1245 14.6613 10.8194 14.9001L10.7988 15.0145C10.7988 15.0145 10.2197 15.5496 9.92456 15.5114L9.85342 15.4733L9.96513 15.4445L10.0568 15.3965L10.1891 15.3583L10.2703 15.3103L10.4125 15.1859L10.4737 15.0715L10.5654 15.0427L10.616 14.9471L10.7377 14.8609L10.89 14.689L11.0017 14.5552L11.1134 14.4214L11.144 14.2589L11.2051 14.1157L11.3168 13.9151L11.3679 13.7813L11.4897 13.6476L11.6014 13.5138L11.7131 13.3513L11.7642 13.2081L11.8659 13.1125L11.9776 13.0837L12.0693 12.9881L12.2016 12.8637L12.2728 12.7681L12.3945 12.7394L12.4962 12.6725L12.5573 12.5863V12.4525L12.5879 12.3762L12.6996 12.3856L12.7607 12.4431L12.8625 12.3856L12.9542 12.2519L12.9947 12.1944L12.9742 12.1181L13.0047 11.9749L13.0759 11.908L12.9842 11.8218L13.0147 11.7549L13.167 11.7455L13.2404 11.7267L13.2276 11.7168V11.6405L13.2887 11.5736L13.3904 11.6118C13.3904 11.6118 13.4716 11.5449 13.4516 11.4968C13.4316 11.4492 13.4616 11.4299 13.4616 11.4299H13.5327L13.5839 11.363L13.5433 11.3056L13.5227 11.258L13.5839 11.2199L13.665 11.1148L13.7767 11.0767L13.8579 11.0098L13.8679 10.8854L13.8884 10.8185L13.9901 10.7804L14.0207 10.6654L14.1019 10.5892L14.0919 10.5029L14.1019 10.4361L14.2236 10.3023L14.2847 10.1591H14.2441L14.1424 10.169L14.1224 10.1022L14.2441 10.0927L14.2947 10.0065L14.2336 9.97779L14.213 9.91091L14.3453 9.82469L14.4776 9.19399L14.4676 9.05082L14.427 8.9646L14.4776 8.90712L14.5387 8.80209L14.4881 8.7258L14.417 8.64951L14.407 8.57322L14.4781 8.52515L14.5293 8.44886L14.6004 8.42012L14.6615 8.27694L14.7532 8.05696L14.7227 8.33442L14.7221 8.33599Z" fill="#0076D6"/>
<path d="M11.7633 13.2101L11.7122 13.3533L11.6005 13.5158L11.4888 13.6495L11.3671 13.7833L11.3159 13.9171L11.2042 14.1177L11.1431 14.2609L11.1125 14.4234L11.0008 14.5572L10.8891 14.691L10.7368 14.8629L10.6151 14.9491L10.5645 15.0447L10.4728 15.0734L10.4117 15.1879L10.2694 15.3122L10.1882 15.3603L10.056 15.3985L9.96425 15.4465L9.85254 15.4753L9.92368 15.5134C10.2182 15.5516 10.7979 15.0165 10.7979 15.0165L10.8185 14.9021C11.1236 14.6633 11.2253 14.3095 11.2253 14.3095L11.2759 14.2045C11.3976 14.1089 11.5099 13.8032 11.5099 13.8032L11.5505 13.7075L11.6316 13.6694L11.6522 13.6213C11.825 13.4113 11.9367 13.325 11.9367 13.325L11.9773 13.2582L11.8656 13.115L11.7639 13.2106L11.7633 13.2101Z" fill="white"/>
<path d="M14.5997 8.42214L14.5286 8.45088L14.4774 8.52717L14.4063 8.57524L14.4163 8.65153L14.4874 8.72782L14.538 8.80411L14.4769 8.90914L14.4263 8.96662L14.4669 9.05284L14.4769 9.19601L14.3446 9.82671L14.2123 9.91293L14.2329 9.97982L14.294 10.0086L14.2434 10.0948L14.1217 10.1042L14.1417 10.1711L14.2434 10.1611H14.284L14.2229 10.3043L14.1012 10.4381L14.0912 10.505L14.1012 10.5912L14.02 10.6675L13.9895 10.7824L13.8877 10.8206L13.8672 10.8875L13.8572 11.0118L13.776 11.0787L13.6643 11.1169L13.5832 11.2219L13.522 11.26L13.5426 11.3076L13.5832 11.3651L13.532 11.4319H13.4609C13.4609 11.4319 13.4303 11.4513 13.4509 11.4988C13.4709 11.5469 13.3898 11.6138 13.3898 11.6138L13.288 11.5756L13.2269 11.6425V11.7188L13.2397 11.7287L13.1663 11.7475L13.014 11.757L12.9835 11.8238L13.0752 11.9101L13.004 11.9769L12.9735 12.1201L12.994 12.1964L12.9535 12.2539L12.8618 12.3877L12.7601 12.4451L12.6989 12.3877L12.5872 12.3782L12.5566 12.4545V12.5883L12.4955 12.6745L12.3938 12.7414L12.2721 12.7701L12.2009 12.8658L12.0687 12.9901L11.9769 13.0858L11.8652 13.1145L11.9158 13.172L11.9769 13.2582L12.0175 13.2106L12.0581 13.1056L12.1804 13.0769L12.3021 13.01L12.4949 12.8668L12.6578 12.7811L12.7695 12.6949L12.8101 12.5993L12.9423 12.5324L13.1352 12.3699L13.2063 12.2267L13.2469 12.1024L13.3386 12.0261L13.3181 11.9304L13.2675 11.8254L13.2742 11.7575L13.288 11.7685L13.4709 11.7397L13.552 11.6441C13.552 11.6441 13.8772 11.329 14.06 10.899L14.1517 10.679C14.1517 10.679 14.4974 10.2583 14.6092 8.91123L14.6192 8.81561L14.6597 8.61496L14.7209 8.33801L14.7514 8.06055L14.6597 8.28053L14.5986 8.42371L14.5997 8.42214Z" fill="white"/>
<path d="M14.8695 3.54592L14.8923 3.47433C15.2657 3.00823 15.3269 2.46375 15.3269 2.46375L15.3347 2.18419L12.8647 0.936904L11.2685 0H11.0673C10.865 0.103984 10.4471 0.366819 10.3103 0.822469C10.3103 0.822469 9.80069 1.64651 9.70788 1.57492V1.72541L9.67731 1.76826L9.31883 2.10529L9.11318 2.12671L8.89976 2.35611L8.99869 2.54265L9.02148 2.57871L9.31104 2.98733L9.37218 3.03018L9.3644 3.12319L9.32605 3.15924L9.19655 3.18798C9.19655 3.18798 9.10485 3.22404 9.11263 3.26688L9.17376 3.34579L9.13542 3.39595L9.11263 3.54644L8.95256 3.63266H8.77749C8.77749 3.63266 8.64021 3.76904 8.60964 3.83331L8.62465 3.89079L8.64743 3.95506L8.63965 4.08413L8.56351 4.13429L8.5863 4.26336L8.63965 4.33495L8.55573 4.44259V4.5356L8.60909 4.59987L8.57074 4.66414L8.58574 4.71431L8.64688 4.77858L8.63187 4.86479L8.59352 4.95101L8.61631 5.00849L8.68467 5.0226L8.69968 5.07276L8.79138 5.06545L8.82973 4.99386L8.89087 4.96512L9.02037 4.97244L9.05094 5.01528L9.18043 5.1083L9.23379 5.15114L9.24157 5.19399L9.29493 5.24415L9.30271 5.84611L9.43999 5.9966L9.49334 6.03266H9.58505L9.6384 5.98981H9.69176L9.79069 6.03266L9.80569 6.11156L9.84404 6.16173L9.86683 6.29811L9.92797 6.42717L9.99689 6.45591V6.54213L10.0652 6.61372L10.1414 6.64246L10.2787 6.69994L10.2937 6.79295L10.362 6.85043L10.3848 6.94344L10.5599 7.10124L10.72 7.20888L10.8345 7.30921L10.9028 7.42365L11.0095 7.46649V7.5595L11.0707 7.56316L11.0807 7.65774L11.0195 7.70529L10.999 7.79151L10.8873 7.82025H10.7755L10.7044 7.85839L10.501 7.87773L10.4804 7.93521L10.267 8.13586L10.1859 8.14527L10.0641 8.1646L9.98299 8.19334L9.85071 8.22208L9.81014 8.28896L9.76957 8.36525L9.68842 8.42273L9.60728 8.45147L9.5567 8.48962L9.42442 8.53769L9.33272 8.63331L9.29215 8.69079H9.29437L9.21045 8.77701L9.0476 8.7676L8.87475 8.90137L8.80361 8.97766L8.82417 9.06388L8.88531 9.16891L8.94645 9.26453L8.92588 9.35075L8.76304 9.36016L8.72247 9.40823L8.60075 9.41764L8.46847 9.55141H8.39733L8.28562 9.60888L8.09276 9.57074L7.98105 9.55193L7.74706 9.58067L7.67592 9.66689L7.43193 9.87694L7.42192 9.94383V9.96316L7.21851 10.1351L7.15737 10.2213L7.1168 10.3645L7.05566 10.4408L7.01509 10.5651L6.97452 10.632L6.96451 10.7083L6.87281 10.8039L6.74053 10.957L6.7133 10.9706L6.8817 11.2251H6.7333L6.83168 11.2909L6.90282 11.3578L6.89281 11.444L6.83168 11.5491L6.7811 11.769L6.7711 11.9028L6.70996 11.9697L6.75053 12.046L6.82167 12.1035L6.95395 12.1129L7.01509 12.1798L7.22851 12.371L7.26908 12.476L7.29965 12.5622L7.45194 12.591L7.51307 12.6772L7.55365 12.7347L7.61478 12.811L7.67592 12.859L7.71649 12.9066L7.76707 12.8397L7.83821 12.811L7.86878 12.8685L7.90935 12.9259V13.0216L7.95993 13.079L8.02106 13.1653L8.0822 13.2128L8.15334 13.1459L8.24504 13.1266L8.31619 13.1647L8.38733 13.3079L8.44846 13.3748L8.57074 13.4229L8.68245 13.4897L8.75359 13.566L8.74359 13.6805L8.71302 13.7568L8.69245 13.8048L8.76359 13.8242L8.8653 13.8623L8.91588 13.8911L8.99702 13.843L9.02759 13.7568L9.14931 13.728L9.28159 13.7092L9.37329 13.6711L9.44443 13.7092L9.465 13.7954L9.50557 13.843H9.80014L9.93241 13.8811L10.0341 13.9099V13.8931L10.1053 13.9767L10.1864 14.1299L10.217 14.273L10.1458 14.3781L10.0747 14.5886L9.92241 14.7893L9.85127 14.9231L9.8207 15.1049L9.84126 15.2387L9.92241 15.2486L10.0241 15.2773L10.1053 15.3442H10.197L10.2581 15.258L10.2681 15.153L10.3292 15.0098L10.441 14.9429L10.5832 14.876L10.7461 14.7804L10.8072 14.666L10.8378 14.551L10.7667 14.4841L10.7566 14.4172L10.8484 14.3692L10.9095 14.2929L11.0418 14.226L11.1335 14.1016L11.164 13.9485L11.154 13.8623L11.3063 13.738L11.418 13.6235L11.5603 13.4422L11.6415 13.3278L11.6515 13.2227L11.6309 13.1177L11.692 13.0984L11.7632 13.0508H11.8443L11.9866 12.9839L12.0477 12.8408L12.19 12.7164L12.2306 12.6208H12.3323L12.424 12.487V12.3532L12.4951 12.267L12.5457 12.162L12.6069 12.0857L12.668 12.105L12.7597 12.1238L12.8408 12.0476L12.8509 11.9232L12.7797 11.7706L12.8203 11.6844L12.8914 11.5794L13.0237 11.5412L13.156 11.57L13.2677 11.5318L13.2877 11.4743L13.196 11.3881L13.2366 11.3019L13.3283 11.2256L13.3994 11.1206L13.5111 11.1112L13.6028 10.9774L13.6434 10.8912L13.7757 10.8718L13.8568 10.7762L13.9074 10.6331L13.9685 10.5468L14.0602 10.4606L14.0702 10.3363V10.2788L13.9685 10.2312L13.928 10.1069L13.9791 10.04V9.94435L14.0402 9.82992L14.0708 9.73429L14.1625 9.60993L14.2336 9.47616L14.1525 9.41868L14.1931 9.32306L14.2437 9.23684L14.3148 9.15062L14.3048 9.08374L14.2236 9.0644L14.1019 9.055L14.0308 8.97871L14.0208 8.89249L14.1125 8.94997L14.2142 8.98811L14.3259 8.97871L14.3359 8.90242L14.3865 8.83553L14.3659 8.74932L14.2742 8.69184L14.2031 8.62495L14.2131 8.55807L14.2742 8.47185V8.35741L14.3148 8.29053L14.3959 8.2712L14.4771 8.29994L14.5688 8.23305L14.6094 8.14683L14.6599 8.07054L14.6499 7.95088L14.7383 7.92005L14.7611 7.63318L14.8067 7.54017L14.7989 7.45395L14.6616 7.46806L14.5927 7.40379L14.8139 7.38968L14.8595 7.33952L14.8745 7.11013L14.905 7.05265L14.9584 6.95964L15.004 6.88073L14.9962 6.65866L14.9884 6.57975L15.0418 6.49353L15.0268 6.42195L15.0495 6.28557L14.92 6.34304L14.9123 6.4648L14.8283 6.50085L14.775 6.5369L14.79 6.44389L14.8511 6.40105L14.8817 6.30803L14.9884 6.20039L14.8817 6.17165L14.7444 6.2145L14.6761 6.2934L14.5616 6.32946L14.5232 6.30072L14.5844 6.25787L14.6377 6.23645L14.7139 6.14344L14.8433 6.1147H15.0034L15.049 6.05722L15.0412 5.92815L15.0106 5.82783L14.9879 5.7275L14.9345 5.67002L14.8734 5.57701L14.8122 5.55559L14.8428 5.67054L14.8122 5.72071L14.8044 5.77819L14.8806 5.83566L14.9189 5.89994V5.97152L14.8961 6.03579L14.82 5.97832L14.7361 5.96421L14.6294 5.94278L14.5227 5.8712L14.4465 5.83514L14.3704 5.81372L14.2864 5.79961L14.2331 5.73481L14.1492 5.69197L14.0958 5.71339L14.0575 5.74213L13.9885 5.74945L13.9046 5.72071L13.8663 5.76355L13.8513 5.8064H13.7829L13.7145 5.75624L13.6384 5.72018L13.5773 5.74892L13.5545 5.69144L13.4628 5.61986L13.4172 5.53364L13.3944 5.46937L13.2955 5.44063L13.2116 5.46937L13.1432 5.54827L12.9681 5.56238L13.1204 5.5049L13.2121 5.40457L13.2655 5.35441L13.395 5.40457L13.4867 5.44742L13.525 5.3612L13.5784 5.2823L13.6012 5.09575L13.6467 5.01685L13.7534 4.96669L13.7762 4.88047L13.7685 4.78746L13.814 4.72998L13.799 4.61555L14.0352 4.40758L14.1036 4.2644L14.2487 4.09249L14.3631 4.07107L14.3937 4.10712L14.3631 4.17139L14.2336 4.32188L14.2186 4.42952L14.3254 4.45095L14.4471 4.39347L14.5004 4.30046L14.5766 4.20013L14.8056 4.06375L14.8511 4.0209L14.8433 3.97805L14.7978 3.90647L14.79 3.77009L14.8511 3.66244L14.8661 3.54801L14.8695 3.54592Z" fill="white"/>
</svg>
